<?xml version="1.0" standalone="no"?>
<!DOCTYPE svg PUBLIC "-//W3C//DTD SVG 20010904//EN"
 "http://www.w3.org/TR/2001/REC-SVG-20010904/DTD/svg10.dtd">
<svg version="1.0" xmlns="http://www.w3.org/2000/svg"
 width="646.000000pt" height="359.000000pt" viewBox="0 0 646.000000 359.000000"
 preserveAspectRatio="xMidYMid meet">

<g transform="translate(0.000000,359.000000) scale(0.100000,-0.100000)"
fill="#000000" stroke="none">
<path d="M1135 2936 c-124 -39 -213 -144 -235 -277 -13 -84 -13 -1608 0 -1702
17 -118 85 -213 189 -264 l56 -28 2045 0 2045 0 47 22 c71 32 141 103 174 176
l29 62 0 880 0 880 -27 57 c-35 76 -98 142 -167 175 l-56 28 -2030 2 c-1611 1
-2038 -1 -2070 -11z m1009 -573 c14 -4 17 -11 12 -35 -3 -17 -6 -67 -6 -113
l0 -82 -160 5 -160 5 0 -67 0 -66 59 0 c32 0 79 -3 105 -6 l46 -7 0 -109 0
-109 -105 7 -105 7 0 -200 0 -200 -82 -6 c-46 -4 -107 -7 -135 -7 l-53 0 0
501 0 501 283 -7 c155 -3 290 -9 301 -12z m329 -1 c15 -17 15 -26 2 -103 -19
-111 -38 -129 -132 -129 -49 0 -74 5 -99 21 l-34 21 0 104 0 104 123 0 c107 0
126 -2 140 -18z m898 -48 c17 -16 17 -18 -12 -60 -16 -24 -36 -44 -44 -44 -7
0 -22 -11 -32 -24 -10 -13 -45 -54 -77 -90 l-59 -66 36 -33 c58 -51 54 -71
-37 -170 l-78 -87 86 -92 c111 -120 112 -133 24 -204 -35 -28 -69 -54 -77 -58
-9 -6 -42 20 -110 88 l-98 97 -90 -95 c-50 -53 -94 -96 -98 -96 -12 0 -165
111 -165 120 0 5 -2 14 -5 22 -3 7 36 59 90 118 l95 105 -85 85 c-75 75 -85
90 -85 120 1 31 9 41 77 95 42 33 80 61 84 63 4 2 46 -37 93 -85 l86 -88 78
84 c80 87 84 88 127 56 20 -14 25 -10 98 71 42 46 77 90 77 96 0 12 69 88 79
88 2 0 12 -7 22 -16z m-891 -221 c0 -29 -32 -698 -34 -699 0 -1 -56 -4 -123
-8 l-123 -7 0 365 0 366 140 0 c127 0 140 -2 140 -17z m1472 -19 l43 -30 -2
-135 c-3 -197 -7 -214 -51 -244 l-37 -25 -172 6 -173 7 0 -41 0 -42 39 0 c21
0 58 -3 83 -6 39 -6 45 -4 54 17 10 22 15 23 90 20 43 -1 97 -6 119 -10 38 -6
40 -9 45 -46 5 -32 0 -51 -24 -96 l-30 -56 -96 -7 c-52 -3 -179 -6 -283 -6
-182 0 -189 1 -226 24 l-39 25 -4 298 -3 298 35 43 35 43 277 -3 277 -3 43
-31z m765 11 l43 -26 0 -188 c0 -103 3 -256 7 -339 l6 -152 -95 0 c-80 0 -97
3 -102 16 -6 16 -8 16 -24 0 -16 -14 -47 -16 -214 -16 l-194 0 -50 35 -49 35
3 63 c2 34 7 107 12 161 7 97 8 101 41 128 33 28 34 28 180 28 81 0 161 3 178
6 28 6 31 10 31 45 l0 39 -47 0 c-27 0 -64 3 -83 6 -32 5 -37 3 -48 -20 -12
-27 -22 -28 -199 -10 l-51 5 -4 42 c-4 33 2 54 26 99 l31 57 115 3 c63 2 189
5 279 6 160 2 165 1 208 -23z"/>
<path d="M3550 1855 c0 -37 4 -55 13 -56 6 0 47 -4 90 -7 l77 -8 0 32 c0 17
-3 46 -6 63 l-6 31 -84 0 -84 0 0 -55z"/>
<path d="M4320 1651 c0 -69 3 -71 96 -71 l84 0 0 55 0 55 -90 0 -90 0 0 -39z"/>
</g>
</svg>
